<svg width="600" height="600" viewBox="0 0 600 600" fill="none" xmlns="http://www.w3.org/2000/svg">
<g filter="url(#filter0_f_1_202)">
<path d="M306 470.4C207.252 470.4 127.2 390.08 127.2 291C127.2 191.92 207.252 111.6 306 111.6C404.749 111.6 484.8 191.92 484.8 291C484.8 390.08 404.749 470.4 306 470.4Z" fill="#F1B1D5" fill-opacity="0.4"/>
</g>
<path d="M302.722 451.945C213.774 451.945 141.667 379.837 141.667 290.889C141.667 201.94 213.774 129.833 302.722 129.833C391.671 129.833 463.778 201.94 463.778 290.889C463.778 379.837 391.671 451.945 302.722 451.945Z" fill="#F1B1D5"/>
<path d="M107.889 233.778L134 259.889L163.667 251.278C164.667 251 165 249.722 164.278 248.944L140.444 225.111C140.111 224.778 139.556 224.611 139.056 224.778L107.889 233.778Z" fill="#F48914" stroke="#17005E" stroke-width="1.5" stroke-miterlimit="10" stroke-linecap="round" stroke-linejoin="round"/>
<path d="M161 249L140.111 228.111L133 256.389L161 249Z" fill="#17005E" stroke="#17005E" stroke-width="1.5" stroke-miterlimit="10" stroke-linecap="round" stroke-linejoin="round"/>
<path d="M159.556 247.556C157.278 245.278 153.889 244.444 150.833 245.333L150.389 245.444C144.111 247.333 138.444 250.722 133.833 255.333L131.667 257.5L161.056 249L159.556 247.556Z" fill="#DEFAE5" stroke="#17005E" stroke-width="1.5" stroke-miterlimit="10" stroke-linecap="round" stroke-linejoin="round"/>
<path d="M142.167 230.111C144.445 232.389 145.278 235.778 144.389 238.833L144.278 239.278C142.389 245.556 139 251.222 134.389 255.833L132.222 258L140.722 228.611L142.167 230.111Z" fill="#DEFAE5" stroke="#17005E" stroke-width="1.5" stroke-miterlimit="10" stroke-linecap="round" stroke-linejoin="round"/>
<path d="M107.167 233.056L134 259.889L143 228.778C143.167 228.278 143 227.778 142.667 227.389L118.056 202.778C117.333 202.056 116.056 202.333 115.722 203.389L107.167 233.056Z" fill="#F48914" stroke="#17005E" stroke-width="1.5" stroke-miterlimit="10" stroke-linecap="round" stroke-linejoin="round"/>
<path d="M113.333 233L130.167 249.833C130.667 250.333 131.556 250.111 131.778 249.444L137.5 229.722C137.667 229.167 137.5 228.5 137.056 228.111L120.222 211.278C119.722 210.778 118.833 211 118.611 211.667L112.889 231.389C112.778 231.944 112.889 232.556 113.333 233Z" fill="#F6A143" stroke="#17005E" stroke-width="1.5" stroke-miterlimit="10" stroke-linecap="round" stroke-linejoin="round"/>
<path d="M107.058 232.418L135.499 260.859L133.574 262.784L105.133 234.343L107.058 232.418Z" fill="#F48914" stroke="#17005E" stroke-width="1.5" stroke-miterlimit="10" stroke-linecap="round" stroke-linejoin="round"/>
<path d="M107.057 232.408L132.513 257.863L130.588 259.788L105.132 234.333L107.057 232.408Z" fill="#F48914" stroke="#17005E" stroke-width="1.5" stroke-miterlimit="10" stroke-linecap="round" stroke-linejoin="round"/>
<path d="M490.977 382.419L528.365 357.53L530.365 327.807C530.421 326.807 529.199 326.419 528.143 327.141L493.921 349.863C493.421 350.196 493.088 350.696 493.032 351.196L490.977 382.419Z" fill="#17005E" stroke="#17005E" stroke-width="1.5" stroke-miterlimit="10" stroke-linecap="round" stroke-linejoin="round"/>
<path d="M526.977 330.363L497.032 350.252L524.31 358.419L526.977 330.363Z" fill="#DEFAE5" stroke="#17005E" stroke-width="1.5" stroke-miterlimit="10" stroke-linecap="round" stroke-linejoin="round"/>
<path d="M524.921 331.752C521.643 333.919 519.477 337.252 519.31 340.363V340.807C518.921 347.085 520.421 352.863 523.532 357.585L525.032 359.807L527.032 330.363L524.921 331.752Z" fill="#DEFAE5" stroke="#17005E" stroke-width="1.5" stroke-miterlimit="10" stroke-linecap="round" stroke-linejoin="round"/>
<path d="M490.588 343.03C493.865 340.196 498.365 339.307 502.254 340.641L502.81 340.863C510.643 343.585 517.477 348.307 522.81 354.474L525.31 357.363L488.477 344.807L490.588 343.03Z" fill="#DEFAE5" stroke="#17005E" stroke-width="1.5" stroke-miterlimit="10" stroke-linecap="round" stroke-linejoin="round"/>
<path d="M489.865 383.085L528.365 357.53L488.477 342.807C487.643 342.53 486.754 342.641 486.032 343.085L452.365 365.474C450.865 366.474 451.143 368.807 452.81 369.419L489.865 383.085Z" fill="#45337E" stroke="#17005E" stroke-width="1.5" stroke-miterlimit="10" stroke-linecap="round" stroke-linejoin="round"/>
<path d="M488.421 377.752L515.199 359.974L486.81 349.085L460.032 366.919L488.421 377.752Z" fill="#17005E" stroke="#17005E" stroke-width="1.5" stroke-miterlimit="10" stroke-linecap="round" stroke-linejoin="round"/>
<path d="M489.037 383.118L529.849 355.996L531.694 358.772L490.882 385.894L489.037 383.118Z" fill="#45337E" stroke="#17005E" stroke-width="1.5" stroke-miterlimit="10" stroke-linecap="round" stroke-linejoin="round"/>
<path d="M489.061 383.127L525.57 358.865L527.415 361.641L490.906 385.903L489.061 383.127Z" fill="#17005E" stroke="#17005E" stroke-width="1.5" stroke-miterlimit="10" stroke-linecap="round" stroke-linejoin="round"/>
<path d="M177.333 457.833H215.889V475.667H177.333V457.833Z" fill="#E556A8" stroke="#17005E" stroke-width="1.5" stroke-miterlimit="10" stroke-linecap="round" stroke-linejoin="round"/>
<path d="M305.889 498L310.222 513.389H348.056L344.5 498H305.889Z" fill="#E556A8" stroke="#17005E" stroke-width="1.5" stroke-miterlimit="10" stroke-linecap="round" stroke-linejoin="round"/>
<path d="M351.389 535.5H276.167C275.278 535.5 274.556 534.722 274.667 533.833C275.833 524.278 283.222 516.722 292.722 515.333L306.111 513.389L311 508.278C312.111 507.111 313.667 506.444 315.278 506.444H323.889C326.278 506.444 328.444 507.889 329.389 510.056L330.333 512.278L340.944 512.167L346.167 509.056C347.611 508.222 349.444 508.944 349.889 510.556L355.278 530.389C355.944 533 354 535.5 351.389 535.5Z" fill="#2FE055" stroke="#17005E" stroke-width="1.5" stroke-miterlimit="10" stroke-linecap="round" stroke-linejoin="round"/>
<path d="M189.778 341.333L258.389 286.556H345.778L344.444 313.722C343.889 325.5 341.889 337.167 338.5 348.444L322.333 402.444L348.944 498.056H305.889L277.778 409.556C276.278 404.889 276 399.889 277 395.111L288.833 336.611L280.889 330.611L220.944 376.5V457.944H177.389V367.167C177.333 357.111 181.944 347.556 189.778 341.333Z" fill="#F48914" stroke="#17005E" stroke-width="1.5" stroke-miterlimit="10" stroke-linecap="round" stroke-linejoin="round"/>
<path d="M345.778 286.556L345.167 299L281.444 286.556H345.778Z" fill="#17005E" stroke="#17005E" stroke-width="1.5" stroke-miterlimit="10" stroke-linecap="round" stroke-linejoin="round"/>
<path d="M261.611 314.778L280.833 330.556L263.722 343.611L261.611 314.778Z" fill="#17005E" stroke="#17005E" stroke-width="1.5" stroke-miterlimit="10" stroke-linecap="round" stroke-linejoin="round"/>
<path d="M315.889 414.111L322.389 402.389L335.167 448.5L315.889 414.111Z" fill="#17005E" stroke="#17005E" stroke-width="1.5" stroke-miterlimit="10" stroke-linecap="round" stroke-linejoin="round"/>
<path d="M210.889 371.944L220.889 376.389V415.278L210.889 371.944Z" fill="#17005E" stroke="#17005E" stroke-width="1.5" stroke-miterlimit="10" stroke-linecap="round" stroke-linejoin="round"/>
<path d="M305.889 498H344.5L345.944 504.333L305.889 498Z" fill="#17005E" stroke="#17005E" stroke-width="1.5" stroke-miterlimit="10" stroke-linecap="round" stroke-linejoin="round"/>
<path d="M177.333 457.833L215.889 465.5V457.833H177.333Z" fill="#17005E" stroke="#17005E" stroke-width="1.5" stroke-miterlimit="10" stroke-linecap="round" stroke-linejoin="round"/>
<path d="M276.167 535.5C275.278 535.5 274.556 534.722 274.667 533.833C275.111 530 276.611 526.5 278.833 523.556H283.944L289.833 529.444H344.833L347.667 523.722L353.167 522.833L355.222 530.444C355.889 533 354 535.5 351.333 535.5H276.167Z" fill="#17005E" stroke="#17005E" stroke-width="1.5" stroke-miterlimit="10" stroke-linecap="round" stroke-linejoin="round"/>
<path d="M218.889 497.667H143.667C142.778 497.667 142.056 496.889 142.167 496C143.333 486.444 150.722 478.889 160.222 477.5L173.611 475.556L178.5 470.444C179.611 469.278 181.167 468.611 182.778 468.611H191.333C193.722 468.611 195.889 470.056 196.833 472.222L197.778 474.444L208.389 474.333L213.611 471.222C215.056 470.389 216.889 471.111 217.333 472.722L222.722 492.556C223.444 495.167 221.5 497.667 218.889 497.667Z" fill="#2FE055" stroke="#17005E" stroke-width="1.5" stroke-miterlimit="10" stroke-linecap="round" stroke-linejoin="round"/>
<path d="M143.667 497.667C142.778 497.667 142.056 496.889 142.167 496C142.611 492.167 144.111 488.667 146.333 485.722H151.444L157.333 491.611H212.333L215.167 485.889L220.667 485L222.722 492.611C223.389 495.167 221.5 497.667 218.833 497.667H143.667Z" fill="#17005E" stroke="#17005E" stroke-width="1.5" stroke-miterlimit="10" stroke-linecap="round" stroke-linejoin="round"/>
<path d="M282 385.167C291.222 393.389 289.667 408.278 279 414.444C278.556 414.722 278.167 414 278.611 413.778C288.889 407.833 290.278 393.611 281.444 385.722C281.055 385.389 281.611 384.833 282 385.167Z" fill="#17005E"/>
<path d="M191.889 341.222C192.556 347.444 192.056 354.333 189.333 360C187.333 364.167 183.722 368.056 178.722 367.722C178.222 367.667 178.222 366.889 178.722 366.944C184 367.278 187.556 362.556 189.278 358.167C191.333 352.833 191.722 346.833 191.111 341.222C191.056 340.722 191.833 340.722 191.889 341.222Z" fill="#17005E"/>
<path d="M337.722 292.278C337.722 292.278 337.611 292.944 337.333 294.167" stroke="#17005E" stroke-linecap="round" stroke-linejoin="round"/>
<path d="M336.556 298C334.833 306.556 331.111 324.5 325.389 350.167C316.278 390.889 315.944 414.111 315.944 414.111L334.722 494.222" stroke="#17005E" stroke-linecap="round" stroke-linejoin="round" stroke-dasharray="7 7"/>
<path d="M335.111 496.111L335.556 498" stroke="#17005E" stroke-linecap="round" stroke-linejoin="round"/>
<path d="M270.222 325.5L210.889 371.944L209.111 457.278" stroke="#17005E" stroke-miterlimit="10" stroke-linecap="round" stroke-linejoin="round" stroke-dasharray="7 7"/>
<path d="M325.111 292.278C324.444 299.056 327.278 305.778 332.722 309.889C333.111 310.167 332.722 310.889 332.333 310.556C326.722 306.278 323.667 299.333 324.333 292.278C324.389 291.778 325.167 291.778 325.111 292.278Z" fill="#17005E"/>
<path d="M295.5 289.278C291.556 295.833 288.5 302.944 286.444 310.278C284.444 317.333 283.722 324.722 280.833 331.556C280.611 332 279.944 331.611 280.167 331.167C283.222 324 283.889 316.167 286.111 308.778C288.167 301.778 291.167 295.111 294.889 288.889C295.111 288.444 295.778 288.833 295.5 289.278Z" fill="#17005E"/>
<path d="M288.667 288.278C285.556 293.333 279.167 303.889 286.278 308.389C286.722 308.667 286.333 309.333 285.889 309.056C278.278 304.222 284.611 293.278 288 287.889C288.278 287.444 288.944 287.833 288.667 288.278Z" fill="#17005E"/>
<path d="M181.611 311.944H425.889C428.667 311.944 430.889 309.722 430.889 306.944V75.5C430.889 72.7222 428.667 70.5 425.889 70.5H181.611C178.833 70.5 176.611 72.7222 176.611 75.5V306.944C176.611 309.722 178.889 311.944 181.611 311.944Z" stroke="#17005E" stroke-width="3" stroke-miterlimit="10" stroke-linecap="round" stroke-linejoin="round"/>
<path d="M430.889 95.5H176.611" stroke="#17005E" stroke-width="1.5" stroke-miterlimit="10" stroke-linecap="round" stroke-linejoin="round"/>
<path d="M199.833 88.5556H209.556C210.167 88.5556 210.611 88.0556 210.611 87.5V77.7778C210.611 77.1667 210.111 76.7222 209.556 76.7222H199.833C199.222 76.7222 198.778 77.2222 198.778 77.7778V87.5C198.722 88.0556 199.222 88.5556 199.833 88.5556Z" fill="#F5A3D2" stroke="#17005E" stroke-width="1.5" stroke-miterlimit="10" stroke-linecap="round" stroke-linejoin="round"/>
<path d="M203.611 81.5556H208V85.9444H203.611V81.5556Z" fill="#F5A3D2" stroke="#17005E" stroke-width="1.5" stroke-miterlimit="10" stroke-linecap="round" stroke-linejoin="round"/>
<path d="M201.333 79.3333V83.6667H203.611V81.5556H205.722V79.3333H201.333Z" fill="#F5A3D2" stroke="#17005E" stroke-width="1.5" stroke-miterlimit="10" stroke-linecap="round" stroke-linejoin="round"/>
<path d="M215.5 88.5556H225.222C225.833 88.5556 226.278 88.0556 226.278 87.5V77.7778C226.278 77.1667 225.778 76.7222 225.222 76.7222H215.5C214.889 76.7222 214.445 77.2222 214.445 77.7778V87.5C214.389 88.0556 214.889 88.5556 215.5 88.5556Z" fill="#F5A3D2" stroke="#17005E" stroke-width="1.5" stroke-miterlimit="10" stroke-linecap="round" stroke-linejoin="round"/>
<path d="M224.111 85.3333H216.556" stroke="#17005E" stroke-width="1.5" stroke-miterlimit="10" stroke-linecap="round" stroke-linejoin="round"/>
<path d="M184.167 88.5556H193.889C194.5 88.5556 194.944 88.0556 194.944 87.5V77.7778C194.944 77.1667 194.444 76.7222 193.889 76.7222H184.167C183.556 76.7222 183.111 77.2222 183.111 77.7778V87.5C183.056 88.0556 183.556 88.5556 184.167 88.5556Z" fill="#F5A3D2" stroke="#17005E" stroke-width="1.5" stroke-miterlimit="10" stroke-linecap="round" stroke-linejoin="round"/>
<path d="M192.944 78.6667L185.056 86.6111" stroke="#17005E" stroke-width="1.5" stroke-miterlimit="10" stroke-linecap="round" stroke-linejoin="round"/>
<path d="M185.056 78.6667L192.944 86.6111" stroke="#17005E" stroke-width="1.5" stroke-miterlimit="10" stroke-linecap="round" stroke-linejoin="round"/>
<path d="M417.278 334.444H340.889C339.389 334.444 338.167 333.222 338.167 331.722V323.778C338.167 322.278 339.389 321.056 340.889 321.056H417.278C418.778 321.056 420 322.278 420 323.778V331.722C420 333.222 418.778 334.444 417.278 334.444Z" fill="#82EC99" stroke="#17005E" stroke-width="1.5" stroke-miterlimit="10" stroke-linecap="round" stroke-linejoin="round"/>
<path d="M359.833 332.5H338.167V322.944H359.833C361.056 322.944 362.111 323.944 362.111 325.222V330.222C362.056 331.5 361.056 332.5 359.833 332.5Z" fill="#DEFAE5" stroke="#17005E" stroke-width="1.5" stroke-miterlimit="10" stroke-linecap="round" stroke-linejoin="round"/>
<path d="M415.488 332.499H411.765V322.944H415.488V332.499Z" fill="#F48914" stroke="#17005E" stroke-width="1.5" stroke-miterlimit="10" stroke-linecap="round" stroke-linejoin="round"/>
<path d="M370.034 332.499H366.311V322.944H370.034V332.499Z" fill="#17005E" stroke="#17005E" stroke-width="1.5" stroke-miterlimit="10" stroke-linecap="round" stroke-linejoin="round"/>
<path d="M338.167 324.833H362.056" stroke="#17005E" stroke-width="1.5" stroke-miterlimit="10" stroke-linecap="round" stroke-linejoin="round"/>
<path d="M338.167 326.722H362.056" stroke="#17005E" stroke-width="1.5" stroke-miterlimit="10" stroke-linecap="round" stroke-linejoin="round"/>
<path d="M338.167 328.556H362.056" stroke="#17005E" stroke-width="1.5" stroke-miterlimit="10" stroke-linecap="round" stroke-linejoin="round"/>
<path d="M338.167 330.389H362.056" stroke="#17005E" stroke-width="1.5" stroke-miterlimit="10" stroke-linecap="round" stroke-linejoin="round"/>
<path d="M354.389 325.111V330L356.889 328.111L359.444 330V324.944H354.389" fill="#E556A8"/>
<path d="M354.389 325.111V330L356.889 328.111L359.444 330V324.944H354.389" stroke="#17005E" stroke-width="1.5" stroke-miterlimit="10" stroke-linecap="round" stroke-linejoin="round"/>
<path d="M414.111 321H337.722C336.222 321 335 319.778 335 318.278V304.944C335 303.444 336.222 302.222 337.722 302.222H414.111C415.611 302.222 416.833 303.444 416.833 304.944V318.278C416.833 319.778 415.611 321 414.111 321Z" fill="#17005E" stroke="#17005E" stroke-width="1.5" stroke-miterlimit="10" stroke-linecap="round" stroke-linejoin="round"/>
<path d="M346.5 318.278H334.945V304.944H346.5C347.722 304.944 348.778 305.944 348.778 307.222V316.056C348.778 317.278 347.778 318.278 346.5 318.278Z" fill="#DEFAE5" stroke="#17005E" stroke-width="1.5" stroke-miterlimit="10" stroke-linecap="round" stroke-linejoin="round"/>
<path d="M412.331 318.263H408.609V304.93H412.331V318.263Z" fill="#FDE7D0" stroke="#17005E" stroke-width="1.5" stroke-miterlimit="10" stroke-linecap="round" stroke-linejoin="round"/>
<path d="M404.573 314.541H353.351V308.708H404.573V314.541Z" fill="#EF76BB" stroke="#17005E" stroke-width="1.5" stroke-miterlimit="10" stroke-linecap="round" stroke-linejoin="round"/>
<path d="M334.945 307.611H348.778" stroke="#17005E" stroke-width="1.5" stroke-miterlimit="10" stroke-linecap="round" stroke-linejoin="round"/>
<path d="M334.945 310.167H348.778" stroke="#17005E" stroke-width="1.5" stroke-miterlimit="10" stroke-linecap="round" stroke-linejoin="round"/>
<path d="M334.945 312.778H348.778" stroke="#17005E" stroke-width="1.5" stroke-miterlimit="10" stroke-linecap="round" stroke-linejoin="round"/>
<path d="M334.945 315.333H348.778" stroke="#17005E" stroke-width="1.5" stroke-miterlimit="10" stroke-linecap="round" stroke-linejoin="round"/>
<path d="M340.389 307.389V312.833L342.944 310.778L345.5 312.833V307.222H340.389" fill="#F48914"/>
<path d="M340.389 307.389V312.833L342.944 310.778L345.5 312.833V307.222H340.389" stroke="#17005E" stroke-width="1.5" stroke-miterlimit="10" stroke-linecap="round" stroke-linejoin="round"/>
<path d="M419.056 302.222H342.667C341.167 302.222 339.944 301 339.944 299.5V291.833C339.944 290.333 341.167 289.111 342.667 289.111H419.056C420.556 289.111 421.778 290.333 421.778 291.833V299.444C421.778 301 420.556 302.222 419.056 302.222Z" fill="#F48914" stroke="#17005E" stroke-width="1.5" stroke-miterlimit="10" stroke-linecap="round" stroke-linejoin="round"/>
<path d="M361.611 300.333H339.944V291H361.611C362.833 291 363.889 292 363.889 293.278V298.056C363.889 299.278 362.833 300.333 361.611 300.333Z" fill="#DEFAE5" stroke="#17005E" stroke-width="1.5" stroke-miterlimit="10" stroke-linecap="round" stroke-linejoin="round"/>
<path d="M368.111 293.278H409.556V298.056H368.111V293.278Z" fill="#8636CC" stroke="#17005E" stroke-width="1.5" stroke-miterlimit="10" stroke-linecap="round" stroke-linejoin="round"/>
<path d="M413.833 294.111H417V297.222H413.833V294.111Z" fill="#E556A8" stroke="#17005E" stroke-width="1.5" stroke-miterlimit="10" stroke-linecap="round" stroke-linejoin="round"/>
<path d="M339.944 292.833H363.889" stroke="#17005E" stroke-width="1.5" stroke-miterlimit="10" stroke-linecap="round" stroke-linejoin="round"/>
<path d="M339.944 294.667H363.889" stroke="#17005E" stroke-width="1.5" stroke-miterlimit="10" stroke-linecap="round" stroke-linejoin="round"/>
<path d="M339.944 296.444H363.889" stroke="#17005E" stroke-width="1.5" stroke-miterlimit="10" stroke-linecap="round" stroke-linejoin="round"/>
<path d="M339.944 298.278H363.889" stroke="#17005E" stroke-width="1.5" stroke-miterlimit="10" stroke-linecap="round" stroke-linejoin="round"/>
<path d="M350.167 298.389V302.167L347.611 300.722L345.111 302.167V298.222H350.167" fill="#E556A8"/>
<path d="M350.167 298.389V302.167L347.611 300.722L345.111 302.167V298.222H350.167" stroke="#17005E" stroke-width="1.5" stroke-miterlimit="10" stroke-linecap="round" stroke-linejoin="round"/>
<path d="M368.944 319.333L361.778 328.722C360.722 330.111 360.611 332.056 361.556 333.556C363.111 336.056 366.611 336.389 368.611 334.333L374.444 328.278L368.944 319.333Z" fill="#E556A8" stroke="#17005E" stroke-width="1.5" stroke-miterlimit="10" stroke-linecap="round" stroke-linejoin="round"/>
<path d="M365.222 324.167L368.944 319.333L374.5 328.278L369.722 333.222L365.222 324.167Z" fill="#17005E" stroke="#17005E" stroke-width="1.5" stroke-miterlimit="10" stroke-linecap="round" stroke-linejoin="round"/>
<path d="M372.722 303.889L367.722 227.444L381.278 193L394.778 203.222C403.111 209.556 407.111 220.056 405 230.333L389.833 305L391.222 305.667C393.889 307 395.667 309.722 395.833 312.667L396.667 329.222L380.611 334.056L387.889 343.111L387.056 343.667C384.278 345.444 380.667 345.333 378.056 343.278L373.611 339.833C371.556 338.167 370.222 335.833 369.778 333.222L368.167 323.056C367.889 321.444 368 319.833 368.5 318.278L372.722 303.889Z" fill="#E556A8" stroke="#17005E" stroke-width="1.5" stroke-miterlimit="10" stroke-linecap="round" stroke-linejoin="round"/>
<path d="M367.722 227.5L394.778 203.222L389.778 199.722L367.722 227.5Z" fill="#17005E" stroke="#17005E" stroke-width="1.5" stroke-miterlimit="10" stroke-linecap="round" stroke-linejoin="round"/>
<path d="M378.278 333.056L386.833 343.111C387.833 344.278 389.333 344.778 390.833 344.444C393.444 343.833 394.722 340.889 393.444 338.556L388.667 330.056" fill="#E556A8"/>
<path d="M378.278 333.056L386.833 343.111C387.833 344.278 389.333 344.778 390.833 344.444C393.444 343.833 394.722 340.889 393.444 338.556L388.667 330.056" stroke="#17005E" stroke-width="1.5" stroke-miterlimit="10" stroke-linecap="round" stroke-linejoin="round"/>
<path d="M396.556 327.889L399.444 334.944L400.833 333.944C402.111 333 403.889 333.167 405 334.278C406.333 335.611 406.222 337.833 404.778 339.056L403 340.556C401.5 341.778 399.611 342.444 397.667 342.278C395.167 342.111 392.889 340.667 391.722 338.444L386.611 328.944" fill="#E556A8"/>
<path d="M396.556 327.889L399.444 334.944L400.833 333.944C402.111 333 403.889 333.167 405 334.278C406.333 335.611 406.222 337.833 404.778 339.056L403 340.556C401.5 341.778 399.611 342.444 397.667 342.278C395.167 342.111 392.889 340.667 391.722 338.444L386.611 328.944" stroke="#17005E" stroke-width="1.5" stroke-miterlimit="10" stroke-linecap="round" stroke-linejoin="round"/>
<path d="M394.722 281.056L389.833 305L385.889 302.5L394.722 281.056Z" fill="#17005E" stroke="#17005E" stroke-width="1.5" stroke-miterlimit="10" stroke-linecap="round" stroke-linejoin="round"/>
<path d="M142.944 168V175H126.444C124.5 175 122.944 173.444 122.944 171.5C122.944 169.556 124.5 168 126.444 168H142.944Z" fill="#E556A8" stroke="#17005E" stroke-width="1.5" stroke-miterlimit="10" stroke-linecap="round" stroke-linejoin="round"/>
<path d="M148.222 168V175H131.667C129.722 175 128.167 173.444 128.167 171.5C128.167 169.556 129.722 168 131.667 168H148.222Z" fill="#E556A8" stroke="#17005E" stroke-width="1.5" stroke-miterlimit="10" stroke-linecap="round" stroke-linejoin="round"/>
<path d="M181.278 170.889L175.222 159.222C174.444 157.722 172.944 156.833 171.222 156.833H160.278C158.556 156.833 157.167 158.222 157.167 159.944C157.167 161.667 158.556 163.056 160.278 163.056H165.722C165.722 167.333 169.167 170.778 173.389 170.833L181.278 170.889Z" fill="#E556A8" stroke="#17005E" stroke-width="1.5" stroke-miterlimit="10" stroke-linecap="round" stroke-linejoin="round"/>
<path d="M137.944 168H176.833C179.722 168 182.556 168.833 184.944 170.389L237.5 204.444L267.5 224.278L245.667 241.111C239.556 245.833 230.778 245.111 225.5 239.5L171.056 181.333C165.167 179.444 156.056 176.5 151.556 175H138C136.056 175 134.5 173.444 134.5 171.5C134.5 169.556 136.056 168 137.944 168Z" fill="#E556A8" stroke="#17005E" stroke-width="1.5" stroke-miterlimit="10" stroke-linecap="round" stroke-linejoin="round"/>
<path d="M237.5 204.444L265.222 225.5L259.056 230.444L237.5 204.444Z" fill="#17005E" stroke="#17005E" stroke-width="1.5" stroke-miterlimit="10" stroke-linecap="round" stroke-linejoin="round"/>
<path d="M171.056 181.278L187 188L190.611 202.167L171.056 181.278Z" fill="#17005E" stroke="#17005E" stroke-width="1.5" stroke-miterlimit="10" stroke-linecap="round" stroke-linejoin="round"/>
<path d="M237.5 204.444L267.5 171.833C273.389 165.444 281.722 161.778 290.389 161.778H335.611C342.222 161.778 348.611 163.889 353.944 167.778L388.889 193.278C390.944 194.778 391.333 197.722 389.778 199.722L367.722 227.444L345.833 211.611V286.5H258.444L267.056 227.778L237.5 204.444Z" fill="#8636CC" stroke="#17005E" stroke-width="1.5" stroke-miterlimit="10" stroke-linecap="round" stroke-linejoin="round"/>
<path d="M293.778 161.833H320.556C320.445 169.111 314.5 175 307.167 175C299.833 175 293.889 169.111 293.778 161.833Z" fill="#17005E" stroke="#17005E" stroke-width="1.5" stroke-miterlimit="10" stroke-linecap="round" stroke-linejoin="round"/>
<path d="M267.056 227.778L272.722 191.222L262 215.5L267.056 227.778Z" fill="#17005E" stroke="#17005E" stroke-width="1.5" stroke-miterlimit="10" stroke-linecap="round" stroke-linejoin="round"/>
<path d="M345.778 211.667L339.5 187.667L367.722 227.5L345.778 211.667Z" fill="#17005E" stroke="#17005E" stroke-width="1.5" stroke-miterlimit="10" stroke-linecap="round" stroke-linejoin="round"/>
<path d="M324.278 184.5C322.667 184.5 321.056 184.5 319.444 184.5C318.944 184.5 318.944 183.722 319.444 183.722C321.056 183.722 322.667 183.722 324.278 183.722C324.833 183.722 324.833 184.5 324.278 184.5Z" fill="#17005E"/>
<path d="M310.222 190.5C310.222 192.111 310.222 193.722 310.222 195.333C310.222 195.833 309.444 195.833 309.444 195.333C309.444 193.722 309.444 192.111 309.444 190.5C309.444 190 310.222 190 310.222 190.5Z" fill="#17005E"/>
<path d="M320.944 202.833C320.944 203.889 320.944 205 320.944 206.056C320.944 206.556 320.167 206.556 320.167 206.056C320.167 205 320.167 203.889 320.167 202.833C320.167 202.333 320.944 202.333 320.944 202.833Z" fill="#17005E"/>
<path d="M328.889 210.056C330.167 211.333 331.389 212.556 332.667 213.833C333 214.167 332.444 214.722 332.111 214.389C330.833 213.111 329.611 211.889 328.333 210.611C327.944 210.278 328.5 209.722 328.889 210.056Z" fill="#17005E"/>
<path d="M321.889 223.444C320.278 225.056 318.667 226.667 317.056 228.278C316.722 228.611 316.167 228.056 316.5 227.722C318.111 226.111 319.722 224.5 321.333 222.889C321.722 222.556 322.278 223.111 321.889 223.444Z" fill="#17005E"/>
<path d="M307.556 219.444C307.556 220.889 307.556 222.278 307.556 223.722C307.556 224.222 306.778 224.222 306.778 223.722C306.778 222.278 306.778 220.889 306.778 219.444C306.778 218.944 307.556 218.944 307.556 219.444Z" fill="#17005E"/>
<path d="M294.556 213.833C293.111 215.278 291.722 216.667 290.278 218.111C289.944 218.444 289.389 217.889 289.722 217.556C291.167 216.111 292.556 214.722 294 213.278C294.389 212.944 294.944 213.444 294.556 213.833Z" fill="#17005E"/>
<path d="M286 205.778C285.444 206.333 284.945 206.833 284.389 207.389C284.056 207.722 283.5 207.167 283.833 206.833C284.389 206.278 284.889 205.778 285.444 205.222C285.833 204.889 286.389 205.444 286 205.778Z" fill="#17005E"/>
<path d="M284.389 192.944C283.333 191.889 282.222 190.778 281.167 189.722C280.833 189.389 281.389 188.833 281.722 189.167C282.778 190.222 283.889 191.333 284.944 192.389C285.278 192.722 284.722 193.278 284.389 192.944Z" fill="#17005E"/>
<path d="M282.778 179C282.222 178.444 281.722 177.944 281.167 177.389C280.833 177.056 281.389 176.5 281.722 176.833C282.278 177.389 282.778 177.889 283.333 178.444C283.667 178.833 283.111 179.333 282.778 179Z" fill="#17005E"/>
<path d="M275.833 170.944C274.944 171.833 274.056 172.722 273.167 173.611C272.833 173.944 272.278 173.389 272.611 173.056C273.5 172.167 274.389 171.278 275.278 170.389C275.611 170.056 276.167 170.611 275.833 170.944Z" fill="#17005E"/>
<path d="M269 181.944C269 183 269 184.111 269 185.167C269 185.667 268.222 185.667 268.222 185.167C268.222 184.111 268.222 183 268.222 181.944C268.222 181.444 269 181.444 269 181.944Z" fill="#17005E"/>
<path d="M288.389 182.611C289.667 182.611 290.889 182.611 292.167 182.611C292.667 182.611 292.667 183.389 292.167 183.389C290.889 183.389 289.667 183.389 288.389 183.389C287.889 183.389 287.889 182.611 288.389 182.611Z" fill="#17005E"/>
<path d="M297.389 193.722C297.389 194.778 297.389 195.889 297.389 196.944C297.389 197.444 296.611 197.444 296.611 196.944C296.611 195.889 296.611 194.778 296.611 193.722C296.611 193.222 297.389 193.222 297.389 193.722Z" fill="#17005E"/>
<path d="M307.944 181.667C308.833 180.778 309.722 179.889 310.611 179C310.944 178.667 311.5 179.222 311.167 179.556C310.278 180.444 309.389 181.333 308.5 182.222C308.167 182.556 307.611 182 307.944 181.667Z" fill="#17005E"/>
<path d="M324.556 172C325.111 171.444 325.611 170.944 326.167 170.389C326.5 170.056 327.056 170.611 326.722 170.944C326.167 171.5 325.667 172 325.111 172.556C324.778 172.944 324.222 172.389 324.556 172Z" fill="#17005E"/>
<path d="M337 174.444C337 175.167 337 175.889 337 176.611C337 177.111 336.222 177.111 336.222 176.611C336.222 175.889 336.222 175.167 336.222 174.444C336.222 173.944 337 173.944 337 174.444Z" fill="#17005E"/>
<path d="M334.722 167.222C333.833 166.333 332.944 165.444 332.056 164.556C331.722 164.222 332.278 163.667 332.611 164C333.5 164.889 334.389 165.778 335.278 166.667C335.667 167 335.111 167.556 334.722 167.222Z" fill="#17005E"/>
<path d="M348.278 171.222C348.278 172.278 348.278 173.389 348.278 174.444C348.278 174.944 347.5 174.944 347.5 174.444C347.5 173.389 347.5 172.278 347.5 171.222C347.5 170.722 348.278 170.722 348.278 171.222Z" fill="#17005E"/>
<path d="M357.389 179.778C357.389 181.944 357.389 184.056 357.389 186.222C357.389 186.722 356.611 186.722 356.611 186.222C356.611 184.056 356.611 181.944 356.611 179.778C356.611 179.278 357.389 179.278 357.389 179.778Z" fill="#17005E"/>
<path d="M370.111 188.111C371 189 371.889 189.889 372.778 190.778C373.111 191.111 372.556 191.667 372.222 191.333C371.333 190.444 370.445 189.556 369.556 188.667C369.222 188.278 369.778 187.722 370.111 188.111Z" fill="#17005E"/>
<path d="M366.389 198.833C365.833 199.389 365.333 199.889 364.778 200.444C364.444 200.778 363.889 200.222 364.222 199.889C364.778 199.333 365.278 198.833 365.833 198.278C366.167 197.944 366.722 198.444 366.389 198.833Z" fill="#17005E"/>
<path d="M368.611 210.333C368.611 211.944 368.611 213.556 368.611 215.167C368.611 215.667 367.833 215.667 367.833 215.167C367.833 213.556 367.833 211.944 367.833 210.333C367.833 209.833 368.611 209.833 368.611 210.333Z" fill="#17005E"/>
<path d="M376.556 199.333C377.444 198.444 378.333 197.556 379.222 196.667C379.556 196.333 380.111 196.889 379.778 197.222C378.889 198.111 378 199 377.111 199.889C376.722 200.278 376.167 199.722 376.556 199.333Z" fill="#17005E"/>
<path d="M384.278 196C385.333 196 386.444 196 387.5 196C388 196 388 196.778 387.5 196.778C386.444 196.778 385.333 196.778 384.278 196.778C383.778 196.778 383.778 196 384.278 196Z" fill="#17005E"/>
<path d="M376.111 205.5C376.111 206.556 376.111 207.667 376.111 208.722C376.111 209.222 375.333 209.222 375.333 208.722C375.333 207.667 375.333 206.556 375.333 205.5C375.333 205 376.111 205 376.111 205.5Z" fill="#17005E"/>
<path d="M354.833 198.944C354.111 198.944 353.389 198.944 352.667 198.944C352.167 198.944 352.167 198.167 352.667 198.167C353.389 198.167 354.111 198.167 354.833 198.167C355.333 198.167 355.333 198.944 354.833 198.944Z" fill="#17005E"/>
<path d="M363 181.944C363 181.222 363 180.5 363 179.778C363 179.278 363.778 179.278 363.778 179.778C363.778 180.5 363.778 181.222 363.778 181.944C363.778 182.444 363 182.444 363 181.944Z" fill="#17005E"/>
<path d="M346.278 184.5C345.389 184.5 344.5 184.5 343.611 184.5C343.111 184.5 343.111 183.722 343.611 183.722C344.5 183.722 345.389 183.722 346.278 183.722C346.778 183.722 346.778 184.5 346.278 184.5Z" fill="#17005E"/>
<path d="M332.056 196.667C332.611 197.222 333.111 197.722 333.667 198.278C334 198.611 333.444 199.167 333.111 198.833C332.556 198.278 332.056 197.778 331.5 197.222C331.167 196.889 331.722 196.333 332.056 196.667Z" fill="#17005E"/>
<path d="M342.389 221.611C342.389 223.556 342.389 225.556 342.389 227.5C342.389 228 341.611 228 341.611 227.5C341.611 225.556 341.611 223.556 341.611 221.611C341.611 221.111 342.389 221.111 342.389 221.611Z" fill="#17005E"/>
<path d="M334.222 233.111C333.5 233.833 332.778 234.556 332.056 235.278C331.722 235.611 331.167 235.056 331.5 234.722C332.222 234 332.944 233.278 333.667 232.556C334.056 232.222 334.556 232.778 334.222 233.111Z" fill="#17005E"/>
<path d="M334.333 244.611C334.333 246.056 334.333 247.444 334.333 248.889C334.333 249.389 333.556 249.389 333.556 248.889C333.556 247.444 333.556 246.056 333.556 244.611C333.556 244.111 334.333 244.111 334.333 244.611Z" fill="#17005E"/>
<path d="M331 255.056C330.444 255.611 329.944 256.111 329.389 256.667C329.056 257 328.5 256.444 328.833 256.111C329.389 255.556 329.889 255.056 330.444 254.5C330.833 254.167 331.389 254.722 331 255.056Z" fill="#17005E"/>
<path d="M318.944 251.444C318.056 251.444 317.167 251.444 316.278 251.444C315.778 251.444 315.778 250.667 316.278 250.667C317.167 250.667 318.056 250.667 318.944 250.667C319.444 250.667 319.444 251.444 318.944 251.444Z" fill="#17005E"/>
<path d="M319.222 238.444C318.167 239.5 317.056 240.611 316 241.667C315.667 242 315.111 241.444 315.444 241.111C316.5 240.056 317.611 238.944 318.667 237.889C319.056 237.556 319.556 238.111 319.222 238.444Z" fill="#17005E"/>
<path d="M307.722 237.5C306.833 237.5 305.944 237.5 305.056 237.5C304.556 237.5 304.556 236.722 305.056 236.722C305.944 236.722 306.833 236.722 307.722 236.722C308.222 236.722 308.222 237.5 307.722 237.5Z" fill="#17005E"/>
<path d="M297.889 232.278C297.889 234.056 297.889 235.833 297.889 237.611C297.889 238.111 297.111 238.111 297.111 237.611C297.111 235.833 297.111 234.056 297.111 232.278C297.111 231.778 297.889 231.778 297.889 232.278Z" fill="#17005E"/>
<path d="M288.778 239.778C288.778 241.056 288.778 242.278 288.778 243.556C288.778 244.056 288 244.056 288 243.556C288 242.278 288 241.056 288 239.778C288 239.278 288.778 239.278 288.778 239.778Z" fill="#17005E"/>
<path d="M300.722 251.444C299.444 251.444 298.222 251.444 296.944 251.444C296.444 251.444 296.444 250.667 296.944 250.667C298.222 250.667 299.444 250.667 300.722 250.667C301.222 250.667 301.222 251.444 300.722 251.444Z" fill="#17005E"/>
<path d="M283.333 230.944C282.611 231.667 281.889 232.389 281.167 233.111C280.833 233.444 280.278 232.889 280.611 232.556C281.333 231.833 282.056 231.111 282.778 230.389C283.111 230.056 283.667 230.611 283.333 230.944Z" fill="#17005E"/>
<path d="M274.222 224.556C273.889 224.889 273.5 225.278 273.167 225.611C272.833 225.944 272.278 225.389 272.611 225.056C272.944 224.722 273.333 224.333 273.667 224C274.056 223.611 274.556 224.167 274.222 224.556Z" fill="#17005E"/>
<path d="M341.278 248.889C341.278 249.611 341.278 250.333 341.278 251.056C341.278 251.556 340.5 251.556 340.5 251.056C340.5 250.333 340.5 249.611 340.5 248.889C340.5 248.389 341.278 248.389 341.278 248.889Z" fill="#17005E"/>
<path d="M342.5 263.778C340.722 263.778 338.944 263.778 337.167 263.778C336.667 263.778 336.667 263 337.167 263C338.944 263 340.722 263 342.5 263C343 263 343 263.778 342.5 263.778Z" fill="#17005E"/>
<path d="M341.833 271.389C341.833 272.444 341.833 273.556 341.833 274.611C341.833 275.111 341.056 275.111 341.056 274.611C341.056 273.556 341.056 272.444 341.056 271.389C341.056 270.889 341.833 270.889 341.833 271.389Z" fill="#17005E"/>
<path d="M337.444 277.556C336.722 276.833 336 276.111 335.278 275.389C334.944 275.056 335.5 274.5 335.833 274.833C336.556 275.556 337.278 276.278 338 277C338.333 277.389 337.778 277.944 337.444 277.556Z" fill="#17005E"/>
<path d="M324.056 271.167C323.333 271.889 322.611 272.611 321.889 273.333C321.556 273.667 321 273.111 321.333 272.778C322.056 272.056 322.778 271.333 323.5 270.611C323.833 270.222 324.389 270.778 324.056 271.167Z" fill="#17005E"/>
<path d="M342.389 283.722C342.389 284.278 342.389 284.778 342.389 285.333C342.389 285.833 341.611 285.833 341.611 285.333C341.611 284.778 341.611 284.278 341.611 283.722C341.611 283.222 342.389 283.222 342.389 283.722Z" fill="#17005E"/>
<path d="M329.111 282C327.833 282 326.611 282 325.333 282C324.833 282 324.833 281.222 325.333 281.222C326.611 281.222 327.833 281.222 329.111 281.222C329.611 281.222 329.611 282 329.111 282Z" fill="#17005E"/>
<path d="M311.056 283.722C311.056 282.444 311.056 281.222 311.056 279.944C311.056 279.444 311.833 279.444 311.833 279.944C311.833 281.222 311.833 282.444 311.833 283.722C311.833 284.222 311.056 284.222 311.056 283.722Z" fill="#17005E"/>
<path d="M305.278 272.222C303.667 273.833 302.056 275.444 300.444 277.056C300.111 277.389 299.556 276.833 299.889 276.5C301.5 274.889 303.111 273.278 304.722 271.667C305.111 271.333 305.667 271.889 305.278 272.222Z" fill="#17005E"/>
<path d="M290.833 279.167C290.278 278.611 289.778 278.111 289.222 277.556C288.889 277.222 289.444 276.667 289.778 277C290.333 277.556 290.833 278.056 291.389 278.611C291.722 279 291.167 279.556 290.833 279.167Z" fill="#17005E"/>
<path d="M280.111 269C279.389 269.722 278.667 270.444 277.944 271.167C277.611 271.5 277.056 270.944 277.389 270.611C278.111 269.889 278.833 269.167 279.556 268.444C279.944 268.111 280.444 268.667 280.111 269Z" fill="#17005E"/>
<path d="M318.111 261.5C316.833 260.222 315.611 259 314.333 257.722C314 257.389 314.556 256.833 314.889 257.167C316.167 258.444 317.389 259.667 318.667 260.944C319.056 261.333 318.5 261.833 318.111 261.5Z" fill="#17005E"/>
<path d="M311.278 261.778C311.278 263.056 311.278 264.278 311.278 265.556C311.278 266.056 310.5 266.056 310.5 265.556C310.5 264.278 310.5 263.056 310.5 261.778C310.5 261.278 311.278 261.278 311.278 261.778Z" fill="#17005E"/>
<path d="M302.889 263.222C301.833 263.222 300.722 263.222 299.667 263.222C299.167 263.222 299.167 262.444 299.667 262.444C300.722 262.444 301.833 262.444 302.889 262.444C303.389 262.444 303.389 263.222 302.889 263.222Z" fill="#17005E"/>
<path d="M290.833 259.389C290.278 259.944 289.778 260.444 289.222 261C288.889 261.333 288.333 260.778 288.667 260.444C289.222 259.889 289.722 259.389 290.278 258.833C290.611 258.444 291.167 259 290.833 259.389Z" fill="#17005E"/>
<path d="M279.056 253.444C278.333 254.167 277.611 254.889 276.889 255.611C276.556 255.944 276 255.389 276.333 255.056C277.056 254.333 277.778 253.611 278.5 252.889C278.833 252.556 279.389 253.111 279.056 253.444Z" fill="#17005E"/>
<path d="M272.889 245.556C271.444 245.556 270.056 245.556 268.611 245.556C268.111 245.556 268.111 244.778 268.611 244.778C270.056 244.778 271.444 244.778 272.889 244.778C273.389 244.778 273.389 245.556 272.889 245.556Z" fill="#17005E"/>
<path d="M274.722 217.056C274.167 216.5 273.667 216 273.111 215.444C272.778 215.111 273.333 214.556 273.667 214.889C274.222 215.444 274.722 215.944 275.278 216.5C275.667 216.833 275.111 217.389 274.722 217.056Z" fill="#17005E"/>
<path d="M304.778 204.722C306.222 206.167 307.611 207.556 309.056 209C309.389 209.333 308.833 209.889 308.5 209.556C307.056 208.111 305.667 206.722 304.222 205.278C303.833 204.889 304.389 204.333 304.778 204.722Z" fill="#17005E"/>
<path d="M319.222 190.222C320.5 191.5 321.722 192.722 323 194C323.333 194.333 322.778 194.889 322.444 194.556C321.167 193.278 319.944 192.056 318.667 190.778C318.333 190.444 318.889 189.889 319.222 190.222Z" fill="#17005E"/>
<path d="M332.056 183.278C332.389 183.611 332.778 184 333.111 184.333C333.444 184.667 332.889 185.222 332.556 184.889C332.222 184.556 331.833 184.167 331.5 183.833C331.167 183.444 331.722 182.944 332.056 183.278Z" fill="#17005E"/>
<path d="M290.722 172.278C290.722 170.833 290.722 169.444 290.722 168C290.722 167.5 291.5 167.5 291.5 168C291.5 169.444 291.5 170.833 291.5 172.278C291.5 172.778 290.722 172.778 290.722 172.278Z" fill="#17005E"/>
<path d="M284.389 166.167C284.056 165.833 283.667 165.444 283.333 165.111C283 164.778 283.556 164.222 283.889 164.556C284.222 164.889 284.611 165.278 284.944 165.611C285.278 165.944 284.722 166.5 284.389 166.167Z" fill="#17005E"/>
<path d="M261.889 191.833C262.444 192.389 262.944 192.889 263.5 193.444C263.833 193.778 263.278 194.333 262.944 194C262.389 193.444 261.889 192.944 261.333 192.389C261 192.056 261.556 191.5 261.889 191.833Z" fill="#17005E"/>
<path d="M254.944 190.278C254.611 190.611 254.222 191 253.889 191.333C253.556 191.667 253 191.111 253.333 190.778C253.667 190.444 254.056 190.056 254.389 189.722C254.722 189.333 255.278 189.889 254.944 190.278Z" fill="#17005E"/>
<path d="M261.389 181.111C261.722 181.444 262.111 181.833 262.444 182.167C262.778 182.5 262.222 183.056 261.889 182.722C261.556 182.389 261.167 182 260.833 181.667C260.444 181.333 261 180.778 261.389 181.111Z" fill="#17005E"/>
<path d="M256.278 200.278C257.556 200.278 258.778 200.278 260.056 200.278C260.556 200.278 260.556 201.056 260.056 201.056C258.778 201.056 257.556 201.056 256.278 201.056C255.778 201.111 255.778 200.278 256.278 200.278Z" fill="#17005E"/>
<path d="M257.056 207.389C256.722 207.722 256.333 208.111 256 208.444C255.667 208.778 255.111 208.222 255.444 207.889C255.778 207.556 256.167 207.167 256.5 206.833C256.889 206.5 257.444 207.056 257.056 207.389Z" fill="#17005E"/>
<path d="M256.556 214.333C257.278 215.056 258 215.778 258.722 216.5C259.056 216.833 258.5 217.389 258.167 217.056C257.444 216.333 256.722 215.611 256 214.889C255.667 214.556 256.167 214 256.556 214.333Z" fill="#17005E"/>
<path d="M246.778 205.5C246.778 204.222 246.778 203 246.778 201.722C246.778 201.222 247.556 201.222 247.556 201.722C247.556 203 247.556 204.222 247.556 205.5C247.556 206 246.778 206 246.778 205.5Z" fill="#17005E"/>
<path d="M243.667 203.667C243.333 204 242.944 204.389 242.611 204.722C242.278 205.056 241.722 204.5 242.056 204.167C242.389 203.833 242.778 203.444 243.111 203.111C243.5 202.722 244.056 203.278 243.667 203.667Z" fill="#17005E"/>
<path d="M267.389 267.111C267.389 267.833 267.389 268.556 267.389 269.278C267.389 269.778 266.611 269.778 266.611 269.278C266.611 268.556 266.611 267.833 266.611 267.111C266.611 266.611 267.389 266.611 267.389 267.111Z" fill="#17005E"/>
<path d="M272.611 277.556C272.056 278.111 271.556 278.611 271 279.167C270.667 279.5 270.111 278.944 270.444 278.611C271 278.056 271.5 277.556 272.056 277C272.444 276.667 272.944 277.222 272.611 277.556Z" fill="#17005E"/>
<path d="M264.556 282.389C264 281.833 263.5 281.333 262.944 280.778C262.611 280.444 263.167 279.889 263.5 280.222C264.056 280.778 264.556 281.278 265.111 281.833C265.444 282.222 264.944 282.778 264.556 282.389Z" fill="#17005E"/>
<path d="M267.222 257.778C266.667 257.222 266.167 256.722 265.611 256.167C265.278 255.833 265.833 255.278 266.167 255.611C266.722 256.167 267.222 256.667 267.778 257.222C268.167 257.556 267.611 258.111 267.222 257.778Z" fill="#17005E"/>
<path d="M278.5 279.722C278.167 280.056 277.778 280.444 277.445 280.778C277.111 281.111 276.556 280.556 276.889 280.222C277.222 279.889 277.611 279.5 277.944 279.167C278.333 278.833 278.889 279.389 278.5 279.722Z" fill="#17005E"/>
<path d="M289.722 270.611C288.833 269.722 287.944 268.833 287.056 267.944C286.722 267.611 287.278 267.056 287.611 267.389C288.5 268.278 289.389 269.167 290.278 270.056C290.667 270.444 290.111 270.944 289.722 270.611Z" fill="#17005E"/>
<path d="M359 207.111C359 208 359 208.889 359 209.778C359 210.278 358.222 210.278 358.222 209.778C358.222 208.889 358.222 208 358.222 207.111C358.222 206.611 359 206.611 359 207.111Z" fill="#17005E"/>
<path d="M358.833 192.944C359.556 192.222 360.278 191.5 361 190.778C361.333 190.444 361.889 191 361.556 191.333C360.833 192.056 360.111 192.778 359.389 193.5C359.056 193.833 358.5 193.278 358.833 192.944Z" fill="#17005E"/>
<path d="M317.333 121.389H319.278C323.444 121.389 326.556 125.333 325.556 129.389L323 139.778C322.389 142.167 320.222 143.889 317.778 143.889H316.111L317.333 121.389Z" fill="#17005E" stroke="#17005E" stroke-width="1.5" stroke-miterlimit="10" stroke-linecap="round" stroke-linejoin="round"/>
<path d="M301.278 115.167C309.667 115.167 316.722 120.556 319.333 128H321.111C323.444 128 325.389 129.944 325.389 132.278C325.389 134.611 323.444 136.556 321.111 136.556H320.278C319.111 146 311.056 153.333 301.333 153.333C290.778 153.333 282.222 144.778 282.222 134.222C282.167 123.722 290.722 115.167 301.278 115.167Z" fill="#E556A8" stroke="#17005E" stroke-width="1.5" stroke-miterlimit="10" stroke-linecap="round" stroke-linejoin="round"/>
<path d="M301.278 115.167C309.667 115.167 316.722 120.556 319.333 128H321.111C323.444 128 325.389 129.944 325.389 132.278C325.389 134.611 323.444 136.556 321.111 136.556H320.278C319.111 146 311.056 153.333 301.333 153.333C290.778 153.333 282.222 144.778 282.222 134.222C282.167 123.722 290.722 115.167 301.278 115.167Z" fill="#E556A8" stroke="#17005E" stroke-width="1.5" stroke-miterlimit="10" stroke-linecap="round" stroke-linejoin="round"/>
<path d="M322.444 131.5C321.389 131.722 320.444 132.167 319.556 132.833C319.556 132.611 319.556 132.389 319.556 132.167C320.333 132.667 321.111 133.222 321.889 133.722C322.278 134 321.889 134.667 321.5 134.389C320.722 133.889 319.944 133.333 319.167 132.833C318.889 132.667 318.944 132.333 319.167 132.167C320.111 131.5 321.111 131 322.278 130.778C322.722 130.667 322.944 131.389 322.444 131.5Z" fill="#17005E"/>
<path d="M318.389 124.111H291.111C284.389 124.111 278.944 118.667 278.944 111.944C278.944 110.278 280.278 108.889 282 108.889H308.5C315.444 108.889 320.556 115.444 318.889 122.167L318.389 124.111Z" fill="#17005E" stroke="#17005E" stroke-width="1.5" stroke-miterlimit="10" stroke-linecap="round" stroke-linejoin="round"/>
<path d="M307.889 122.667L308.722 124.833C309.389 126.667 311.167 127.889 313.111 127.889L319.389 128V122.222L307.889 122.667Z" fill="#17005E" stroke="#17005E" stroke-width="1.5" stroke-miterlimit="10" stroke-linecap="round" stroke-linejoin="round"/>
<path d="M296.389 132.722C296.389 133.333 296.889 133.833 297.5 133.833C298.111 133.833 298.611 133.333 298.611 132.722C298.611 132.111 298.111 131.611 297.5 131.611C296.889 131.611 296.389 132.111 296.389 132.722Z" fill="#17005E" stroke="#17005E" stroke-width="1.5" stroke-miterlimit="10" stroke-linecap="round" stroke-linejoin="round"/>
<path d="M284.389 132.722C284.389 133.333 284.889 133.833 285.5 133.833C286.111 133.833 286.611 133.333 286.611 132.722C286.611 132.111 286.111 131.611 285.5 131.611C284.889 131.611 284.389 132.111 284.389 132.722Z" fill="#17005E" stroke="#17005E" stroke-width="1.5" stroke-miterlimit="10" stroke-linecap="round" stroke-linejoin="round"/>
<path d="M290.667 129.111V133.333C290.667 134.444 289.778 135.278 288.722 135.278C287.611 135.278 286.778 136.167 286.778 137.222C286.778 139.278 288.444 141 290.556 141H292.167" stroke="#17005E" stroke-width="1.5" stroke-miterlimit="10" stroke-linecap="round" stroke-linejoin="round"/>
<path d="M315.722 130.389C314.722 130.389 313.778 130.389 312.778 130.389C312.278 130.389 312.278 129.611 312.778 129.611C313.778 129.611 314.722 129.611 315.722 129.611C316.222 129.611 316.222 130.389 315.722 130.389Z" fill="#17005E"/>
<path d="M315.667 132.056C315 132.056 314.278 132.056 313.611 132.056C313.111 132.056 313.111 131.278 313.611 131.278C314.278 131.278 315 131.278 315.667 131.278C316.167 131.278 316.167 132.056 315.667 132.056Z" fill="#17005E"/>
<path d="M315.389 133.833C315.111 133.833 314.778 133.833 314.5 133.833C314 133.833 314 133.056 314.5 133.056C314.778 133.056 315.111 133.056 315.389 133.056C315.889 133.056 315.889 133.833 315.389 133.833Z" fill="#17005E"/>
<path d="M297.444 143.278L290.889 145L293.889 147.333C294.722 147.944 295.778 148.222 296.778 148C298.444 147.667 299.5 146.111 299.222 144.444C299.111 143.611 298.278 143.111 297.444 143.278Z" fill="#17005E" stroke="#17005E" stroke-width="1.5" stroke-miterlimit="10" stroke-linecap="round" stroke-linejoin="round"/>
<path d="M101.278 168H167.889V165.222C167.889 163.389 166.389 161.944 164.611 161.944H101.333V168H101.278Z" fill="#17005E" stroke="#17005E" stroke-width="1.5" stroke-miterlimit="10" stroke-linecap="round" stroke-linejoin="round"/>
<path d="M100.444 168H147.667L136.778 129.778C136.444 128.667 135.5 127.944 134.333 127.944H88.1111C86.4445 127.944 85.2223 129.556 85.6667 131.167L95 163.944C95.7778 166.333 97.9445 168 100.444 168Z" fill="#17005E" stroke="#17005E" stroke-width="1.5" stroke-miterlimit="10" stroke-linecap="round" stroke-linejoin="round"/>
<path d="M100.556 158H140.556L133.556 133.389C133.333 132.667 132.722 132.222 132 132.222H92.6667C91.6111 132.222 90.8334 133.278 91.1112 134.278L97.1111 155.389C97.5556 156.944 98.9445 158 100.556 158Z" fill="#FDE7D0" stroke="#17005E" stroke-width="1.5" stroke-miterlimit="10" stroke-linecap="round" stroke-linejoin="round"/>
<path d="M117.222 140.722L111.667 144.833C111.278 145.111 111.5 145.722 112 145.944L119.833 149.167C120.389 149.389 120.833 149.056 120.667 148.556L118.389 141.167C118.278 140.722 117.611 140.444 117.222 140.722Z" fill="#FDE7D0" stroke="#17005E" stroke-width="1.5" stroke-miterlimit="10" stroke-linecap="round" stroke-linejoin="round"/>
<path d="M105.167 142.333L101.5 144.944C101.278 145.111 101.389 145.556 101.722 145.667L106.945 147.889C107.278 148.056 107.611 147.833 107.5 147.5L105.889 142.667C105.833 142.333 105.389 142.111 105.167 142.333Z" fill="#17005E" stroke="#17005E" stroke-width="1.5" stroke-miterlimit="10" stroke-linecap="round" stroke-linejoin="round"/>
<path d="M101.389 147.778L99.7778 142.944H98.8334L100.444 147.778H101.389Z" fill="#17005E" stroke="#17005E" stroke-width="1.5" stroke-miterlimit="10" stroke-linecap="round" stroke-linejoin="round"/>
<path d="M126.778 148.111L130.445 145.5C130.667 145.333 130.556 144.889 130.222 144.778L125 142.556C124.667 142.389 124.333 142.611 124.445 142.944L126.056 147.778C126.056 148.111 126.5 148.278 126.778 148.111Z" fill="#17005E" stroke="#17005E" stroke-width="1.5" stroke-miterlimit="10" stroke-linecap="round" stroke-linejoin="round"/>
<path d="M130.556 142.667L132.111 147.5H133.111L131.5 142.667H130.556Z" fill="#17005E" stroke="#17005E" stroke-width="1.5" stroke-miterlimit="10" stroke-linecap="round" stroke-linejoin="round"/>
<path d="M184.944 195.222L199.5 177.611L193.611 173.833L179.278 190.278L184.944 195.222Z" fill="#FDE7D0" stroke="#17005E" stroke-width="1.5" stroke-miterlimit="10" stroke-linecap="round" stroke-linejoin="round"/>
<path d="M179.5 194.944C181.722 196.889 184.778 197.056 186.222 195.333C187.722 193.611 187.111 190.667 184.889 188.722C182.667 186.778 179.611 186.611 178.167 188.333C176.667 190.056 177.278 193 179.5 194.944Z" fill="#FDE7D0" stroke="#17005E" stroke-width="1.5" stroke-miterlimit="10" stroke-linecap="round" stroke-linejoin="round"/>
<path d="M178.446 196.153C176.222 194.222 175.626 191.266 177.115 189.552C178.604 187.838 181.614 188.014 183.838 189.945C186.061 191.877 186.657 194.832 185.169 196.546C183.68 198.261 180.67 198.085 178.446 196.153Z" fill="#FDE7D0" stroke="#17005E" stroke-width="1.5" stroke-miterlimit="10" stroke-linecap="round" stroke-linejoin="round"/>
<path d="M179.444 195.056C180.833 196.278 182.778 196.389 183.722 195.333C184.667 194.222 184.278 192.389 182.889 191.111C181.5 189.889 179.556 189.778 178.611 190.833C177.611 191.944 178 193.833 179.444 195.056Z" fill="#F48914" stroke="#17005E" stroke-width="1.5" stroke-miterlimit="10" stroke-linecap="round" stroke-linejoin="round"/>
<path d="M422.333 535.5H254.667" stroke="#17005E" stroke-width="3" stroke-miterlimit="10" stroke-linecap="round" stroke-linejoin="round"/>
<path d="M229.5 535.5H148.056" stroke="#17005E" stroke-width="3" stroke-miterlimit="10" stroke-linecap="round" stroke-linejoin="round"/>
<path d="M534.667 409.333L523.889 398.556C522.5 397.167 520.222 397.167 518.833 398.556L517.889 399.5C516.5 400.889 516.5 403.167 517.889 404.556L528.667 415.333C530.055 416.722 532.333 416.722 533.722 415.333L534.667 414.389C536.055 413 536.055 410.722 534.667 409.333Z" fill="#FAD1E8"/>
<path d="M90.5608 504.973C87.0127 503.516 85.3173 499.459 86.774 495.911C88.2306 492.363 92.2877 490.667 95.8358 492.124C99.3838 493.581 101.079 497.638 99.6226 501.186C98.1659 504.734 94.1088 506.429 90.5608 504.973Z" fill="#FDE7D0"/>
<path d="M88.4444 302.611C88.7221 302.333 88.8888 302 88.8888 301.611V295.556H94.9444C95.7221 295.556 96.3888 294.944 96.3888 294.111V286.667C96.3888 285.889 95.7777 285.222 94.9444 285.222C94.1666 285.222 93.4999 285.889 93.4999 286.667V292.722H87.4444C86.6666 292.722 85.9999 293.333 85.9999 294.167V300.222H79.9444C79.1666 300.222 78.4999 300.833 78.4999 301.667C78.4999 302.444 79.111 303.111 79.9444 303.111H87.3888C87.7777 303.056 88.1666 302.889 88.4444 302.611Z" fill="#E9D1FA"/>
<path d="M82.9999 297.222C83.2777 296.944 83.4444 296.611 83.4444 296.222V290.167H89.4444C90.2221 290.167 90.8888 289.5 90.8888 288.722V281.278C90.8888 280.5 90.2777 279.833 89.4444 279.833C88.6666 279.833 87.9999 280.444 87.9999 281.278V287.333H81.9444C81.1666 287.333 80.4999 288 80.4999 288.778V294.833H74.4444C73.6666 294.833 72.9999 295.444 72.9999 296.278C72.9999 297.056 73.611 297.722 74.4444 297.722H81.8888C82.3888 297.611 82.7222 297.444 82.9999 297.222Z" fill="#E9D1FA"/>
<path d="M489.889 64.2778C489.444 64.2778 489 64.4444 488.667 64.7778L483.444 70L478.222 64.7778C477.556 64.1111 476.444 64.1111 475.722 64.7778L469.222 71.2778C468.556 71.9444 468.556 73.0556 469.222 73.7778C469.889 74.4444 471 74.4444 471.722 73.7778L476.944 68.5556L482.167 73.7778C482.833 74.4444 483.944 74.4444 484.667 73.7778L489.889 68.5556L495.111 73.7778C495.778 74.4444 496.889 74.4444 497.611 73.7778C498.278 73.1111 498.278 72 497.611 71.2778L491.111 64.7778C490.778 64.4444 490.333 64.2778 489.889 64.2778Z" fill="#E9D1FA"/>
<path d="M489.889 73.7222C489.444 73.7222 489 73.8889 488.667 74.2222L483.444 79.4444L478.222 74.2222C477.556 73.5556 476.444 73.5556 475.722 74.2222L469.222 80.7222C468.556 81.3889 468.556 82.5 469.222 83.2222C469.889 83.8889 471 83.8889 471.722 83.2222L476.944 78L482.167 83.2222C482.833 83.8889 483.944 83.8889 484.667 83.2222L489.889 78L495.111 83.2222C495.778 83.8889 496.889 83.8889 497.611 83.2222C498.278 82.5556 498.278 81.4444 497.611 80.7222L491.111 74.2222C490.778 73.8889 490.333 73.7222 489.889 73.7222Z" fill="#E9D1FA"/>
<path d="M542.944 318.111C542.944 319.222 543.833 320.056 544.889 320.056C546 320.056 546.833 319.167 546.833 318.111C546.833 317 545.944 316.167 544.889 316.167C543.833 316.111 542.944 317 542.944 318.111Z" fill="#FAD1E8"/>
<path d="M536.944 318.111C536.944 319.222 537.833 320.056 538.889 320.056C540 320.056 540.833 319.167 540.833 318.111C540.833 317 539.944 316.167 538.889 316.167C537.778 316.111 536.944 317 536.944 318.111Z" fill="#FAD1E8"/>
<path d="M530.889 318.111C530.889 319.222 531.778 320.056 532.833 320.056C533.889 320.056 534.778 319.167 534.778 318.111C534.778 317 533.889 316.167 532.833 316.167C531.778 316.167 530.889 317 530.889 318.111Z" fill="#FAD1E8"/>
<path d="M544.889 308.444C543.815 308.444 542.944 307.574 542.944 306.5C542.944 305.426 543.815 304.556 544.889 304.556C545.963 304.556 546.833 305.426 546.833 306.5C546.833 307.574 545.963 308.444 544.889 308.444Z" fill="#FAD1E8"/>
<path d="M536.944 306.5C536.944 307.611 537.833 308.444 538.889 308.444C540 308.444 540.833 307.556 540.833 306.5C540.833 305.444 539.944 304.556 538.889 304.556C537.778 304.556 536.944 305.389 536.944 306.5Z" fill="#FAD1E8"/>
<path d="M532.889 308.444C531.815 308.444 530.944 307.574 530.944 306.5C530.944 305.426 531.815 304.556 532.889 304.556C533.963 304.556 534.833 305.426 534.833 306.5C534.833 307.574 533.963 308.444 532.889 308.444Z" fill="#FAD1E8"/>
<path d="M542.944 312.278C542.944 313.389 543.833 314.222 544.889 314.222C546 314.222 546.833 313.333 546.833 312.278C546.833 311.167 545.944 310.333 544.889 310.333C543.833 310.333 542.944 311.222 542.944 312.278Z" fill="#FAD1E8"/>
<path d="M536.944 312.278C536.944 313.389 537.833 314.222 538.889 314.222C540 314.222 540.833 313.333 540.833 312.278C540.833 311.167 539.944 310.333 538.889 310.333C537.778 310.333 536.944 311.222 536.944 312.278Z" fill="#FAD1E8"/>
<path d="M530.889 312.278C530.889 313.389 531.778 314.222 532.833 314.222C533.889 314.222 534.778 313.333 534.778 312.278C534.778 311.167 533.889 310.333 532.833 310.333C531.778 310.333 530.889 311.222 530.889 312.278Z" fill="#FAD1E8"/>
<path d="M98.7777 90.3333C98.7777 92.1111 100.222 93.5556 102 93.5556C103.778 93.5556 105.222 92.1111 105.222 90.3333C105.222 88.5556 103.778 87.1111 102 87.1111C100.222 87.1111 98.7777 88.5556 98.7777 90.3333Z" fill="#FAD1E8"/>
<path d="M89.4999 90.3333C89.4999 92.1111 90.9444 93.5556 92.7222 93.5556C94.5 93.5556 95.9444 92.1111 95.9444 90.3333C95.9444 88.5556 94.5 87.1111 92.7222 87.1111C90.9444 87.1111 89.4999 88.5556 89.4999 90.3333Z" fill="#FAD1E8"/>
<path d="M98.7777 99.7778C98.7777 101.556 100.222 103 102 103C103.778 103 105.222 101.556 105.222 99.7778C105.222 98 103.778 96.5556 102 96.5556C100.222 96.6111 98.7777 98 98.7777 99.7778Z" fill="#FAD1E8"/>
<path d="M89.4999 99.7778C89.4999 101.556 90.9444 103 92.7222 103C94.5 103 95.9444 101.556 95.9444 99.7778C95.9444 98 94.5 96.5556 92.7222 96.5556C90.9444 96.6111 89.4999 98 89.4999 99.7778Z" fill="#FAD1E8"/>
<path d="M19.8246 438.914H99.7691C102.547 438.914 104.769 436.692 104.769 433.914V380.692C104.769 377.914 102.547 375.692 99.7691 375.692H19.7691C16.9913 375.692 14.7691 377.914 14.7691 380.692V433.914C14.8247 436.692 17.0469 438.914 19.8246 438.914Z" fill="#CFAFEB" stroke="#17005E" stroke-width="1.5" stroke-miterlimit="10" stroke-linecap="round" stroke-linejoin="round"/>
<path d="M66.158 394.192L51.8802 402.414C50.9358 402.97 50.9358 404.359 51.8802 404.914L66.158 413.137C67.1025 413.692 68.3247 412.97 68.3247 411.859V395.414C68.3247 394.303 67.1025 393.637 66.158 394.192Z" fill="#FDE7D0" stroke="#17005E" stroke-width="1.5" stroke-miterlimit="10" stroke-linecap="round" stroke-linejoin="round"/>
<path d="M22.1025 429.581C22.1025 430.137 22.5469 430.526 23.0469 430.526C23.5469 430.526 23.9913 430.081 23.9913 429.581C23.9913 429.026 23.5469 428.637 23.0469 428.637C22.5469 428.637 22.1025 429.026 22.1025 429.581Z" fill="#17005E" stroke="#17005E" stroke-width="1.5" stroke-miterlimit="10" stroke-linecap="round" stroke-linejoin="round"/>
<path d="M88.2691 429.581H23.1024" stroke="#17005E" stroke-width="1.5" stroke-miterlimit="10" stroke-linecap="round" stroke-linejoin="round"/>
<path d="M26.7691 380.859H20.0469" stroke="#17005E" stroke-width="1.5" stroke-miterlimit="10" stroke-linecap="round" stroke-linejoin="round"/>
<path d="M26.7691 383.637H20.0469" stroke="#17005E" stroke-width="1.5" stroke-miterlimit="10" stroke-linecap="round" stroke-linejoin="round"/>
<path d="M26.7691 386.414H20.0469" stroke="#17005E" stroke-width="1.5" stroke-miterlimit="10" stroke-linecap="round" stroke-linejoin="round"/>
<path d="M93.4914 427.692H98.3802V431.47H93.4914V427.692Z" fill="#F5A3D2" stroke="#17005E" stroke-width="1.5" stroke-miterlimit="10" stroke-linecap="round" stroke-linejoin="round"/>
<path d="M488.692 159.008H589.359C592.137 159.008 594.359 156.786 594.359 154.008V86.2307C594.359 83.4529 592.137 81.2307 589.359 81.2307H488.692C485.914 81.2307 483.692 83.4529 483.692 86.2307V153.953C483.692 156.731 485.914 159.008 488.692 159.008Z" fill="#FDE7D0" stroke="#17005E" stroke-width="1.5" stroke-miterlimit="10" stroke-linecap="round" stroke-linejoin="round"/>
<path d="M546.859 103.953L529.248 114.064C528.026 114.731 528.026 116.453 529.248 117.175L546.859 127.286C548.026 127.953 549.526 127.12 549.526 125.731V105.508C549.526 104.12 548.026 103.286 546.859 103.953Z" fill="#DC4298" stroke="#17005E" stroke-width="1.5" stroke-miterlimit="10" stroke-linecap="round" stroke-linejoin="round"/>
<path d="M538.081 147.508C538.081 148.175 538.637 148.675 539.248 148.675C539.859 148.675 540.414 148.12 540.414 147.508C540.414 146.842 539.859 146.342 539.248 146.342C538.637 146.342 538.081 146.842 538.081 147.508Z" fill="#17005E" stroke="#17005E" stroke-width="1.5" stroke-miterlimit="10" stroke-linecap="round" stroke-linejoin="round"/>
<path d="M574.081 147.508H493.859" stroke="#17005E" stroke-width="1.5" stroke-miterlimit="10" stroke-linecap="round" stroke-linejoin="round"/>
<path d="M498.359 87.6196H490.081" stroke="#17005E" stroke-width="1.5" stroke-miterlimit="10" stroke-linecap="round" stroke-linejoin="round"/>
<path d="M498.359 91.0085H490.081" stroke="#17005E" stroke-width="1.5" stroke-miterlimit="10" stroke-linecap="round" stroke-linejoin="round"/>
<path d="M498.359 94.3974H490.081" stroke="#17005E" stroke-width="1.5" stroke-miterlimit="10" stroke-linecap="round" stroke-linejoin="round"/>
<path d="M580.47 145.175H586.47V149.786H580.47V145.175Z" fill="#E9D1FA" stroke="#17005E" stroke-width="1.5" stroke-miterlimit="10" stroke-linecap="round" stroke-linejoin="round"/>
<path d="M441.616 511.684H535.838C538.616 511.684 540.838 509.461 540.838 506.684V443.461C540.838 440.684 538.616 438.461 535.838 438.461H441.616C438.838 438.461 436.616 440.684 436.616 443.461V506.684C436.616 509.406 438.838 511.684 441.616 511.684Z" fill="#DC4298" stroke="#17005E" stroke-width="1.5" stroke-miterlimit="10" stroke-linecap="round" stroke-linejoin="round"/>
<path d="M496.06 459.85L479.504 469.35C478.393 470.017 478.393 471.628 479.504 472.295L496.06 481.795C497.171 482.461 498.56 481.628 498.56 480.35V461.295C498.616 460.017 497.171 459.184 496.06 459.85Z" fill="#E9D1FA" stroke="#17005E" stroke-width="1.5" stroke-miterlimit="10" stroke-linecap="round" stroke-linejoin="round"/>
<path d="M463.56 500.85C463.56 501.461 464.06 501.961 464.671 501.961C465.282 501.961 465.782 501.461 465.782 500.85C465.782 500.239 465.282 499.739 464.671 499.739C464.06 499.739 463.56 500.239 463.56 500.85Z" fill="#17005E" stroke="#17005E" stroke-width="1.5" stroke-miterlimit="10" stroke-linecap="round" stroke-linejoin="round"/>
<path d="M521.727 500.85H446.171" stroke="#17005E" stroke-width="1.5" stroke-miterlimit="10" stroke-linecap="round" stroke-linejoin="round"/>
<path d="M450.449 444.461H442.616" stroke="#17005E" stroke-width="1.5" stroke-miterlimit="10" stroke-linecap="round" stroke-linejoin="round"/>
<path d="M450.449 447.628H442.616" stroke="#17005E" stroke-width="1.5" stroke-miterlimit="10" stroke-linecap="round" stroke-linejoin="round"/>
<path d="M450.449 450.795H442.616" stroke="#17005E" stroke-width="1.5" stroke-miterlimit="10" stroke-linecap="round" stroke-linejoin="round"/>
<path d="M527.727 498.684H533.393V503.073H527.727V498.684Z" fill="#FDE7D0" stroke="#17005E" stroke-width="1.5" stroke-miterlimit="10" stroke-linecap="round" stroke-linejoin="round"/>
<defs>
<filter id="filter0_f_1_202" x="27.2" y="11.5999" width="557.6" height="558.8" filterUnits="userSpaceOnUse" color-interpolation-filters="sRGB">
<feFlood flood-opacity="0" result="BackgroundImageFix"/>
<feBlend mode="normal" in="SourceGraphic" in2="BackgroundImageFix" result="shape"/>
<feGaussianBlur stdDeviation="50" result="effect1_foregroundBlur_1_202"/>
</filter>
</defs>
</svg>
