<svg width="143" height="20" viewBox="0 0 143 20" fill="none" xmlns="http://www.w3.org/2000/svg">
<g clip-path="url(#clip0_1_868)">
<path d="M60.523 4.05724C59.8367 4.36132 59.0996 4.56678 58.3246 4.65965C59.1242 4.18117 59.7225 3.4281 60.0077 2.54095C59.2564 2.9872 58.4342 3.30131 57.5767 3.46963C57.0001 2.85396 56.2363 2.44589 55.404 2.30876C54.5717 2.17163 53.7174 2.31313 52.9738 2.71128C52.2301 3.10943 51.6387 3.74196 51.2914 4.51066C50.9441 5.27936 50.8602 6.14122 51.0529 6.96245C49.5306 6.88601 48.0414 6.49034 46.6819 5.80111C45.3224 5.11188 44.1231 4.14449 43.1616 2.96173C42.8329 3.5288 42.6439 4.18627 42.6439 4.88648C42.6435 5.51683 42.7987 6.13752 43.0958 6.69348C43.3928 7.24945 43.8225 7.7235 44.3467 8.07357C43.7388 8.05423 43.1443 7.88996 42.6126 7.59444V7.64375C42.6126 8.52784 42.9184 9.38472 43.4782 10.069C44.038 10.7533 44.8173 11.2228 45.6839 11.3979C45.1199 11.5505 44.5286 11.573 43.9547 11.4637C44.1992 12.2244 44.6755 12.8896 45.3168 13.3662C45.9581 13.8427 46.7325 14.1068 47.5314 14.1215C46.1752 15.1861 44.5003 15.7636 42.7762 15.7611C42.4708 15.7611 42.1656 15.7433 41.8623 15.7076C43.6124 16.8329 45.6496 17.4301 47.7302 17.4277C54.7734 17.4277 58.6237 11.5943 58.6237 6.53509C58.6237 6.37072 58.6196 6.20471 58.6122 6.04034C59.3611 5.49873 60.0076 4.82804 60.5213 4.05971L60.523 4.05724Z" fill="#086BED"/>
</g>
<path d="M9.86216 7.29453C8.44834 7.29453 7.29456 8.44831 7.29456 9.86213C7.29456 11.276 8.44834 12.4297 9.86216 12.4297C11.276 12.4297 12.4298 11.276 12.4298 9.86213C12.4298 8.44831 11.276 7.29453 9.86216 7.29453ZM17.563 9.86213C17.563 8.79888 17.5727 7.74526 17.513 6.68393C17.4533 5.45117 17.172 4.3571 16.2706 3.45564C15.3672 2.55226 14.2751 2.27296 13.0423 2.21325C11.979 2.15354 10.9254 2.16317 9.86409 2.16317C8.80083 2.16317 7.74721 2.15354 6.68588 2.21325C5.45312 2.27296 4.35905 2.55419 3.45759 3.45564C2.55421 4.35902 2.27492 5.45117 2.2152 6.68393C2.15549 7.74718 2.16512 8.80081 2.16512 9.86213C2.16512 10.9235 2.15549 11.979 2.2152 13.0403C2.27492 14.2731 2.55614 15.3672 3.45759 16.2686C4.36098 17.172 5.45312 17.4513 6.68588 17.511C7.74914 17.5707 8.80276 17.5611 9.86409 17.5611C10.9273 17.5611 11.981 17.5707 13.0423 17.511C14.2751 17.4513 15.3691 17.1701 16.2706 16.2686C17.174 15.3652 17.4533 14.2731 17.513 13.0403C17.5746 11.979 17.563 10.9254 17.563 9.86213ZM9.86216 13.8127C7.67594 13.8127 5.91155 12.0484 5.91155 9.86213C5.91155 7.67591 7.67594 5.91153 9.86216 5.91153C12.0484 5.91153 13.8128 7.67591 13.8128 9.86213C13.8128 12.0484 12.0484 13.8127 9.86216 13.8127ZM13.9746 6.67237C13.4641 6.67237 13.0519 6.26017 13.0519 5.74973C13.0519 5.23929 13.4641 4.82709 13.9746 4.82709C14.485 4.82709 14.8972 5.23929 14.8972 5.74973C14.8974 5.87093 14.8736 5.99098 14.8273 6.10299C14.781 6.215 14.713 6.31677 14.6273 6.40247C14.5416 6.48818 14.4398 6.55614 14.3278 6.60245C14.2158 6.64876 14.0958 6.67252 13.9746 6.67237Z" fill="#086BED"/>
<path d="M87.28 17.2586H83.7019V5.73603H87.28V17.2586ZM85.4888 4.16426C84.3448 4.16426 83.4165 3.21627 83.4165 2.07227C83.4165 1.52267 83.6348 0.995579 84.0235 0.606953C84.4121 0.218328 84.9392 0 85.4888 0C86.0384 0 86.5655 0.218328 86.9541 0.606953C87.3427 0.995579 87.561 1.52267 87.561 2.07227C87.561 3.21627 86.6328 4.16426 85.4888 4.16426ZM100.671 17.2586H97.1014V11.6496C97.1014 10.3126 97.0742 8.59849 95.2411 8.59849C93.3809 8.59849 93.0955 10.0507 93.0955 11.5534V17.2586H89.5211V5.73603H92.9525V7.30779H93.0024C93.4801 6.40233 94.6469 5.44694 96.3876 5.44694C100.009 5.44694 100.675 7.83172 100.675 10.929V17.2586H100.671Z" fill="#086BED"/>
<g clip-path="url(#clip1_1_868)">
<path d="M133.138 2.26807C123.446 2.26807 123.276 3.13001 123.276 9.86186C123.276 16.5937 123.446 17.4557 133.138 17.4557C142.83 17.4557 143 16.5937 143 9.86186C143 3.13001 142.83 2.26807 133.138 2.26807ZM136.299 10.1913L131.871 12.2583C131.483 12.4378 131.166 12.2366 131.166 11.8086V7.91509C131.166 7.48806 131.483 7.28589 131.871 7.46538L136.299 9.53247C136.686 9.71393 136.686 10.0098 136.299 10.1913Z" fill="#086BED"/>
</g>
<defs>
<clipPath id="clip0_1_868">
<rect width="19.7241" height="19.7241" fill="white" transform="translate(41.0918)"/>
</clipPath>
<clipPath id="clip1_1_868">
<rect width="19.7241" height="19.7241" fill="white" transform="translate(123.276)"/>
</clipPath>
</defs>
</svg>
