<svg width="112" height="25" viewBox="0 0 112 25" fill="none" xmlns="http://www.w3.org/2000/svg">
<path d="M12 2.5L15.09 8.76L22 9.77L17 14.64L18.18 21.52L12 18.27L5.82 21.52L7 14.64L2 9.77L8.91 8.76L12 2.5Z" fill="#FAD6A1"/>
<path d="M34 2.5L37.09 8.76L44 9.77L39 14.64L40.18 21.52L34 18.27L27.82 21.52L29 14.64L24 9.77L30.91 8.76L34 2.5Z" fill="#FAD6A1"/>
<path d="M56 2.5L59.09 8.76L66 9.77L61 14.64L62.18 21.52L56 18.27L49.82 21.52L51 14.64L46 9.77L52.91 8.76L56 2.5Z" fill="#FAD6A1"/>
<path d="M78 2.5L81.09 8.76L88 9.77L83 14.64L84.18 21.52L78 18.27L71.82 21.52L73 14.64L68 9.77L74.91 8.76L78 2.5Z" fill="#FAD6A1"/>
<path d="M100 3.06481L102.866 8.87066C102.902 8.94437 102.973 8.99548 103.054 9.00737L109.463 9.94415L104.826 14.4609C104.767 14.5183 104.74 14.6011 104.754 14.6823L105.848 21.0629L100.116 18.0487C100.044 18.0104 99.9565 18.0104 99.8836 18.0487L94.152 21.0629L95.2464 14.6823C95.2603 14.6011 95.2334 14.5183 95.1744 14.4609L90.5371 9.94415L96.9462 9.00737C97.0275 8.99548 97.0978 8.94437 97.1342 8.87066L100 3.06481Z" stroke="#FAD6A1" stroke-width="0.5" stroke-linecap="round" stroke-linejoin="round"/>
<path d="M100 18.27V2.5L96.91 8.76L90 9.77L95 14.64L93.82 21.52L100 18.27Z" fill="#FAD6A1"/>
</svg>
