<svg width="118" height="24" viewBox="0 0 118 24" fill="none" xmlns="http://www.w3.org/2000/svg">
<path d="M10.1473 23.352C8.03525 23.352 6.23258 22.9467 4.73925 22.136C3.26725 21.3253 2.14725 20.1093 1.37925 18.488C0.61125 16.8667 0.22725 14.8187 0.22725 12.344C0.22725 8.696 1.06992 5.944 2.75525 4.088C4.46192 2.232 6.92592 1.304 10.1473 1.304C12.2806 1.304 14.0833 1.70933 15.5553 2.52C17.0273 3.33066 18.1473 4.55733 18.9153 6.2C19.7046 7.82133 20.0993 9.86933 20.0993 12.344C20.0993 15.9707 19.2459 18.712 17.5393 20.568C15.8539 22.424 13.3899 23.352 10.1473 23.352ZM10.1473 20.312C11.5766 20.312 12.7499 20.0453 13.6673 19.512C14.6059 18.9573 15.2993 18.0933 15.7473 16.92C16.2166 15.7467 16.4513 14.2107 16.4513 12.312C16.4513 10.4347 16.2166 8.92 15.7473 7.768C15.2993 6.59467 14.6059 5.74133 13.6673 5.208C12.7499 4.65333 11.5766 4.376 10.1473 4.376C8.73925 4.376 7.56592 4.65333 6.62725 5.208C5.68858 5.76267 4.98458 6.62667 4.51525 7.8C4.06725 8.952 3.84325 10.4667 3.84325 12.344C3.84325 14.2213 4.06725 15.7467 4.51525 16.92C4.98458 18.0933 5.68858 18.9573 6.62725 19.512C7.56592 20.0453 8.73925 20.312 10.1473 20.312ZM27.586 23L22.242 6.936H25.826L29.89 20.664L28.898 20.856L32.802 6.936H35.586L39.458 20.472H38.658L42.722 6.936H46.178L40.802 23H37.634L33.826 10.424L34.434 10.712L30.754 23H27.586ZM52.321 23H48.993V0.855999H52.321V23ZM63.4675 23.48C61.8888 23.48 60.5128 23.16 59.3395 22.52C58.1875 21.88 57.2915 20.9307 56.6515 19.672C56.0328 18.4133 55.7235 16.8773 55.7235 15.064C55.7235 12.2693 56.3742 10.1573 57.6755 8.728C58.9982 7.27733 60.8328 6.552 63.1795 6.552C64.9075 6.552 66.3048 6.936 67.3715 7.704C68.4382 8.472 69.2062 9.54933 69.6755 10.936C70.1662 12.3013 70.4008 13.9013 70.3795 15.736H57.7395L57.6435 13.24H67.8195L67.0195 14.04C66.9555 12.3973 66.6142 11.2027 65.9955 10.456C65.3768 9.688 64.4062 9.304 63.0835 9.304C62.2302 9.304 61.5048 9.48533 60.9075 9.848C60.3102 10.1893 59.8515 10.7867 59.5315 11.64C59.2328 12.472 59.0835 13.624 59.0835 15.096C59.0835 16.888 59.4995 18.2533 60.3315 19.192C61.1635 20.1093 62.3902 20.568 64.0115 20.568C64.7368 20.568 65.4088 20.504 66.0275 20.376C66.6675 20.248 67.2542 20.088 67.7875 19.896C68.3208 19.6827 68.7795 19.48 69.1635 19.288V22.392C68.4168 22.712 67.5742 22.968 66.6355 23.16C65.6968 23.3733 64.6408 23.48 63.4675 23.48ZM79.567 23.48C78.735 23.48 77.935 23.3947 77.167 23.224C76.399 23.0747 75.695 22.808 75.055 22.424C74.4363 22.04 73.935 21.5173 73.551 20.856C73.1883 20.1733 73.007 19.3307 73.007 18.328C73.007 17.1333 73.2417 16.152 73.711 15.384C74.1803 14.616 74.8523 14.04 75.727 13.656C76.6017 13.272 77.647 13.08 78.863 13.08C79.6737 13.08 80.399 13.144 81.039 13.272C81.7003 13.4 82.287 13.5813 82.799 13.816C83.3323 14.0293 83.7803 14.2747 84.143 14.552L84.495 16.76C84.0257 16.44 83.3963 16.1733 82.607 15.96C81.8177 15.7253 80.9643 15.608 80.047 15.608C78.831 15.608 77.903 15.8213 77.263 16.248C76.6443 16.6747 76.335 17.3147 76.335 18.168C76.335 18.808 76.5163 19.3307 76.879 19.736C77.2417 20.12 77.6897 20.408 78.223 20.6C78.7777 20.7707 79.3537 20.856 79.951 20.856C81.2097 20.856 82.1377 20.7707 82.735 20.6C83.3323 20.4293 83.631 20.0347 83.631 19.416V12.696C83.631 11.5653 83.2897 10.744 82.607 10.232C81.9243 9.69867 80.9537 9.432 79.695 9.432C78.799 9.432 77.871 9.58133 76.911 9.88C75.951 10.1573 75.1617 10.552 74.543 11.064V7.928C75.1403 7.52267 76.0043 7.20267 77.135 6.968C78.287 6.712 79.471 6.584 80.687 6.584C81.2843 6.584 81.8817 6.648 82.479 6.776C83.0977 6.88267 83.6737 7.064 84.207 7.32C84.7403 7.55467 85.2097 7.88533 85.615 8.312C86.0417 8.71733 86.3723 9.21867 86.607 9.816C86.8417 10.4133 86.959 11.1173 86.959 11.928V19.608C86.959 20.6533 86.6283 21.464 85.967 22.04C85.327 22.5947 84.4523 22.968 83.343 23.16C82.2337 23.3733 80.975 23.48 79.567 23.48ZM91.1805 23V8.408C91.4578 8.23733 91.9698 8.00267 92.7165 7.704C93.4632 7.40533 94.3485 7.14933 95.3725 6.936C96.3965 6.70133 97.4312 6.584 98.4765 6.584C99.0098 6.584 99.4472 6.62667 99.7885 6.712C100.13 6.79733 100.418 6.89333 100.653 7V9.688C100.162 9.624 99.6498 9.58133 99.1165 9.56C98.5832 9.51733 98.0498 9.51733 97.5165 9.56C96.9832 9.58133 96.4605 9.624 95.9485 9.688C95.4365 9.752 94.9672 9.816 94.5405 9.88V23H91.1805ZM103.462 8.248C103.931 8.01333 104.454 7.8 105.03 7.608C105.627 7.39467 106.256 7.21333 106.918 7.064C107.579 6.91467 108.251 6.79733 108.934 6.712C109.616 6.62667 110.278 6.584 110.918 6.584C112.432 6.584 113.67 6.79733 114.63 7.224C115.59 7.62933 116.304 8.26933 116.774 9.144C117.243 9.99733 117.478 11.0747 117.478 12.376V23H114.118V12.824C114.118 12.4187 114.064 12.024 113.958 11.64C113.872 11.2347 113.691 10.872 113.414 10.552C113.158 10.2107 112.774 9.944 112.262 9.752C111.771 9.56 111.12 9.464 110.31 9.464C109.734 9.464 109.136 9.51733 108.518 9.624C107.92 9.73067 107.355 9.88 106.822 10.072V23H103.462V8.248Z" fill="#313273"/>
</svg>
